#!OML:ASF F:\VICON\USERDATA\INSTALL\rory3\rory3.ASF
:FULLY-SPECIFIED
:DEGREES
3503
root -0.00741157 16.1862 0.152755 5.08849 1.98749 0.615171
lowerback 9.58547 -1.79524 0.0280394
upperback -3.64773 -2.27739 1.46028
thorax -9.21647 -1.0546 1.93608
lowerneck -6.76695 -0.669391 -10.4756
upperneck 11.2878 -0.436018 6.1174
head 4.52284 -0.300321 3.58612
rclavicle 3.50358e-015 1.07344e-014
rhumerus -39.535 -3.54077 -61.9828
rradius 21.3583
rwrist 36.2531
rhand -22.4116 17.9569
rfingers 7.12502
rthumb 4.01131 -11.9851
lclavicle 3.50358e-015 1.07344e-014
lhumerus 47.7201 -33.9242 55.4771
lradius 40.2886
lwrist -4.15392
lhand -18.9509 16.9714
lfingers 7.12502
lthumb 7.35256 46.8236
rfemur -6.18378 11.3292 16.991
rtibia 17.7689
rfoot -13.1086 -16.256
rtoes -5.66381
lfemur 1.85214 -9.64376 -16.1203
ltibia -1.59028e-015
lfoot -3.89633 8.75839
ltoes -11.1629
3504
root -0.00866817 16.1953 0.168223 5.2126 1.71361 0.586503
lowerback 9.46642 -1.7922 -0.0830342
upperback -3.8045 -2.29953 1.33199
thorax -9.31804 -1.06177 1.8656
lowerneck -6.80369 -0.432059 -10.4517
upperneck 11.4398 -0.116208 6.10829
head 4.54787 -0.144683 3.59965
rclavicle -4.92365e-014 6.36111e-015
rhumerus -40 -3.42071 -62.4062
rradius 21.2984
rwrist 36.4216
rhand -22.1425 17.7988
rfingers 7.12502
rthumb 4.27115 -12.1381
lclavicle -4.92365e-014 6.36111e-015
lhumerus 48.5615 -32.2504 55.517
lradius 38.7452
lwrist -3.87617
lhand -18.431 17.5488
lfingers 7.12502
lthumb 7.85434 47.3829
rfemur -6.13876 11.3596 16.9764
rtibia 17.4136
rfoot -12.9524 -16.0105
rtoes -4.30664
lfemur 1.84922 -9.36061 -16.098
ltibia 7.95139e-015
lfoot -3.99086 8.78356
ltoes -10.8271
3505
root -0.00632463 16.201 0.183988 5.33017 1.46564 0.374804
lowerback 9.22043 -1.8248 0.0516796
upperback -3.87655 -2.33603 1.22743
thorax -9.26092 -1.0921 1.6768
lowerneck -6.87869 -0.186545 -10.3223
upperneck 11.5076 0.213757 6.05348
head 4.55301 0.0196856 3.58108
rclavicle 3.10601e-015 -8.74653e-015
rhumerus -40.2869 -3.25998 -62.9278
rradius 21.1703
rwrist 36.3728
rhand -21.9066 17.5605
rfingers 7.12502
rthumb 4.49894 -12.3718
lclavicle 3.10601e-015 -8.74653e-015
lhumerus 49.4574 -30.495 55.5813
lradius 37.1005
lwrist -3.9574
lhand -17.9124 16.8595
lfingers 7.12502
lthumb 8.35484 46.6743
rfemur -6.08785 11.3711 17.1501
rtibia 17.0389
rfoot -12.6111 -15.8665
rtoes -5.6035
lfemur 1.85291 -9.08602 -15.8813
ltibia 1.59028e-015
lfoot -4.10615 8.75771
ltoes -10.7179
3506
root -0.00319918 16.2 0.202637 5.37096 1.15613 0.236869
lowerback 8.97055 -1.83334 0.111074
upperback -3.88914 -2.35264 1.09985
thorax -9.13509 -1.10984 1.50055
lowerneck -6.92184 0.0586913 -10.2444
upperneck 11.4645 0.544682 6.0274
head 4.51913 0.185511 3.57822
rclavicle -6.21202e-016 1.59028e-015
rhumerus -40.4976 -3.32764 -63.3713
rradius 20.975
rwrist 36.4096
rhand -21.6427 17.434
rfingers 7.12502
rthumb 4.75379 -12.4927
lclavicle -6.21202e-016 1.59028e-015
lhumerus 50.3331 -28.8034 55.3679
lradius 35.7659
lwrist -4.33546
lhand -17.2106 16.4236
lfingers 7.12502
lthumb 9.03211 46.2102
rfemur -5.95094 11.3497 17.2553
rtibia 16.6786
rfoot -12.2897 -15.692
rtoes -8.696
lfemur 1.96969 -8.76264 -15.7653
ltibia 0
lfoot -4.30386 8.69352
ltoes -10.5125
3507
root -0.00230252 16.2 0.220115 5.39004 0.8369 0.196682
lowerback 8.81606 -1.83282 -0.0144242
upperback -3.92599 -2.37653 1.00999
thorax -9.08256 -1.11784 1.47414
lowerneck -7.00867 0.305612 -10.2644
upperneck 11.488 0.892515 6.00131
head 4.51174 0.354905 3.59338
rclavicle -6.7711e-015 -3.37934e-015
rhumerus -40.7387 -3.23602 -63.7828
rradius 20.8437
rwrist 36.2641
rhand -21.356 17.4356
rfingers 7.12502
rthumb 5.03064 -12.4846
lclavicle -6.7711e-015 -3.37934e-015
lhumerus 51.1992 -27.4001 54.7306
lradius 34.77
lwrist -4.19019
lhand -16.8356 16.2274
lfingers 7.12502
lthumb 9.39398 45.998
rfemur -5.79153 11.3468 17.2683
rtibia 16.3061
rfoot -12.0282 -15.4974
rtoes -10.5532
lfemur 2.10863 -8.44059 -15.7574
ltibia -4.77083e-015
lfoot -4.48307 8.68423
ltoes -10.3723
